ffmpeg started on 2025-05-12 at 15:14:34
Report written to "D:\Convert\FFMetrics\reports\psnr_report-6.txt"
Log level: 32
Command line:
ffmpeg -hide_banner -nostdin -i "G:\\\xc0\xed\xe8\xec\xe5\\\xce\xed\xe3\xee\xe8\xed\xe3\xe8\\!_35_\xcb\xe5\xf2\xee_2024\\DreamCast\\\xc6\xe8\xe7\xed\xfc \xf1 \xec\xee\xe5\xe9 \xf1\xe2\xee\xe4\xed\xee\xe9 \xf1\xe5\xf1\xf2\xf0\xee\xe9\\[DC] Gimai Seikatsu - 06_Telegram_HEVC.mkv" -i "G:\\\xc0\xed\xe8\xec\xe5\\\xce\xed\xe3\xee\xe8\xed\xe3\xe8\\!_35_\xcb\xe5\xf2\xee_2024\\DreamCast\\\xc6\xe8\xe7\xed\xfc \xf1 \xec\xee\xe5\xe9 \xf1\xe2\xee\xe4\xed\xee\xe9 \xf1\xe5\xf1\xf2\xf0\xee\xe9\\[DC] Gimai Seikatsu - 06_Telegram.mp4" -lavfi "[0:v]settb=AVTB,setpts=PTS-STARTPTS,format=pix_fmts=yuv420p10,fps=24000/1001,scale=1920:1080:flags=bicubic[main];[1:v]settb=AVTB,setpts=PTS-STARTPTS,format=pix_fmts=yuv420p,fps=24000/1001,scale=1920:1080:flags=bicubic[ref];[main][ref]psnr=eof_action=endall:stats_file='D\\:/Convert/FFMetrics/logs/psnr_logfile-6.txt'" -f null -
Input #0, matroska,webm, from 'G:\Аниме\Онгоинги\!_35_Лето_2024\DreamCast\Жизнь с моей сводной сестрой\[DC] Gimai Seikatsu - 06_Telegram_HEVC.mkv':
  Metadata:
    COMPATIBLE_BRANDS: isomiso2avc1mp41
    MAJOR_BRAND     : isom
    MINOR_VERSION   : 512
    ENCODER         : Lavf61.7.100
  Duration: 00:23:56.72, start: -0.021000, bitrate: 857 kb/s
  Stream #0:0: Video: hevc (Main 10), yuv420p10le(tv, bt709, progressive), 1920x1080 [SAR 1:1 DAR 16:9], 23.98 fps, 23.98 tbr, 1k tbn (default)
      Metadata:
        HANDLER_NAME    : VideoHandler
        VENDOR_ID       : [0][0][0][0]
        ENCODER         : Lavc61.19.100 libx265
        BPS             : 660764
        DURATION        : 00:23:56.601708333
        NUMBER_OF_FRAMES: 34444
        NUMBER_OF_BYTES : 118656932
        _STATISTICS_WRITING_APP: mkvpropedit v66.0.0 ('Josie') 64-bit
        _STATISTICS_WRITING_DATE_UTC: 2025-05-07 13:14:33
        _STATISTICS_TAGS: BPS DURATION NUMBER_OF_FRAMES NUMBER_OF_BYTES
  Stream #0:1: Audio: aac (LC), 48000 Hz, stereo, fltp (default)
      Metadata:
        HANDLER_NAME    : SoundHandler
        VENDOR_ID       : [0][0][0][0]
        ENCODER         : Lavc61.19.100 aac
        BPS             : 192933
        DURATION        : 00:23:56.714000000
        NUMBER_OF_FRAMES: 67347
        NUMBER_OF_BYTES : 34648770
        _STATISTICS_WRITING_APP: mkvpropedit v66.0.0 ('Josie') 64-bit
        _STATISTICS_WRITING_DATE_UTC: 2025-05-07 13:14:33
        _STATISTICS_TAGS: BPS DURATION NUMBER_OF_FRAMES NUMBER_OF_BYTES
Input #1, mov,mp4,m4a,3gp,3g2,mj2, from 'G:\Аниме\Онгоинги\!_35_Лето_2024\DreamCast\Жизнь с моей сводной сестрой\[DC] Gimai Seikatsu - 06_Telegram.mp4':
  Metadata:
    major_brand     : isom
    minor_version   : 512
    compatible_brands: isomiso2avc1mp41
    encoder         : Lavf60.16.100
  Duration: 00:23:56.67, start: 0.000000, bitrate: 3756 kb/s
  Stream #1:0[0x1](und): Video: h264 (High) (avc1 / 0x31637661), yuv420p(tv, bt709, progressive), 1920x1080 [SAR 1:1 DAR 16:9], 3608 kb/s, 23.98 fps, 23.98 tbr, 24k tbn (default)
      Metadata:
        handler_name    : VideoHandler
        vendor_id       : [0][0][0][0]
        encoder         : Lavc60.31.102 h264_qsv
  Stream #1:1[0x2](und): Audio: aac (HE-AACv2) (mp4a / 0x6134706D), 48000 Hz, stereo, fltp, 144 kb/s (default)
      Metadata:
        handler_name    : SoundHandler
        vendor_id       : [0][0][0][0]
Stream mapping:
  Stream #0:0 (hevc) -> settb:default
  Stream #1:0 (h264) -> settb:default
  psnr:default -> Stream #0:0 (wrapped_avframe)
  Stream #0:1 -> #0:1 (aac (native) -> pcm_s16le (native))
Output #0, null, to 'pipe:':
  Metadata:
    COMPATIBLE_BRANDS: isomiso2avc1mp41
    MAJOR_BRAND     : isom
    MINOR_VERSION   : 512
    encoder         : Lavf61.7.100
  Stream #0:0: Video: wrapped_avframe, yuv420p10le(tv, bt709, progressive), 1920x1080 [SAR 1:1 DAR 16:9], q=2-31, 200 kb/s, 23.98 fps, 23.98 tbn
      Metadata:
        encoder         : Lavc61.19.100 wrapped_avframe
  Stream #0:1: Audio: pcm_s16le, 48000 Hz, stereo, s16, 1536 kb/s (default)
      Metadata:
        HANDLER_NAME    : SoundHandler
        VENDOR_ID       : [0][0][0][0]
        _STATISTICS_TAGS: BPS DURATION NUMBER_OF_FRAMES NUMBER_OF_BYTES
        BPS             : 192933
        DURATION        : 00:23:56.714000000
        NUMBER_OF_FRAMES: 67347
        NUMBER_OF_BYTES : 34648770
        _STATISTICS_WRITING_APP: mkvpropedit v66.0.0 ('Josie') 64-bit
        _STATISTICS_WRITING_DATE_UTC: 2025-05-07 13:14:33
        encoder         : Lavc61.19.100 pcm_s16le
frame=  179 fps=0.0 q=-0.0 size=N/A time=00:00:07.46 bitrate=N/A speed=14.6x    frame=  449 fps=435 q=-0.0 size=N/A time=00:00:18.72 bitrate=N/A speed=18.1x    frame=  728 fps=472 q=-0.0 size=N/A time=00:00:30.36 bitrate=N/A speed=19.7x    frame= 1010 fps=490 q=-0.0 size=N/A time=00:00:42.12 bitrate=N/A speed=20.4x    frame= 1260 fps=490 q=-0.0 size=N/A time=00:00:52.55 bitrate=N/A speed=20.4x    frame= 1484 fps=480 q=-0.0 size=N/A time=00:01:01.89 bitrate=N/A speed=  20x    frame= 1720 fps=478 q=-0.0 size=N/A time=00:01:11.73 bitrate=N/A speed=19.9x    frame= 1937 fps=471 q=-0.0 size=N/A time=00:01:20.78 bitrate=N/A speed=19.7x    frame= 2172 fps=469 q=-0.0 size=N/A time=00:01:30.59 bitrate=N/A speed=19.5x    frame= 2430 fps=471 q=-0.0 size=N/A time=00:01:41.35 bitrate=N/A speed=19.6x    frame= 2592 fps=456 q=-0.0 size=N/A time=00:01:48.10 bitrate=N/A speed=  19x    frame= 2748 fps=444 q=-0.0 size=N/A time=00:01:54.61 bitrate=N/A speed=18.5x    frame= 2983 fps=444 q=-0.0 size=N/A time=00:02:04.41 bitrate=N/A speed=18.5x    frame= 3241 fps=449 q=-0.0 size=N/A time=00:02:15.17 bitrate=N/A speed=18.7x    frame= 3496 fps=451 q=-0.0 size=N/A time=00:02:25.81 bitrate=N/A speed=18.8x    frame= 3727 fps=451 q=-0.0 size=N/A time=00:02:35.44 bitrate=N/A speed=18.8x    frame= 3973 fps=452 q=-0.0 size=N/A time=00:02:45.70 bitrate=N/A speed=18.9x    frame= 4223 fps=455 q=-0.0 size=N/A time=00:02:56.13 bitrate=N/A speed=  19x    frame= 4469 fps=456 q=-0.0 size=N/A time=00:03:06.39 bitrate=N/A speed=  19x    frame= 4688 fps=454 q=-0.0 size=N/A time=00:03:15.52 bitrate=N/A speed=  19x    frame= 4916 fps=454 q=-0.0 size=N/A time=00:03:25.03 bitrate=N/A speed=18.9x    frame= 5166 fps=455 q=-0.0 size=N/A time=00:03:35.46 bitrate=N/A speed=  19x    frame= 5423 fps=457 q=-0.0 size=N/A time=00:03:46.18 bitrate=N/A speed=19.1x    frame= 5675 fps=458 q=-0.0 size=N/A time=00:03:56.69 bitrate=N/A speed=19.1x    frame= 5927 fps=459 q=-0.0 size=N/A time=00:04:07.20 bitrate=N/A speed=19.2x    frame= 6208 fps=462 q=-0.0 size=N/A time=00:04:18.92 bitrate=N/A speed=19.3x    frame= 6458 fps=464 q=-0.0 size=N/A time=00:04:29.35 bitrate=N/A speed=19.3x    frame= 6727 fps=466 q=-0.0 size=N/A time=00:04:40.57 bitrate=N/A speed=19.4x    frame= 6989 fps=467 q=-0.0 size=N/A time=00:04:51.49 bitrate=N/A speed=19.5x    frame= 7255 fps=469 q=-0.0 size=N/A time=00:05:02.59 bitrate=N/A speed=19.5x    frame= 7524 fps=470 q=-0.0 size=N/A time=00:05:13.81 bitrate=N/A speed=19.6x    frame= 7786 fps=472 q=-0.0 size=N/A time=00:05:24.74 bitrate=N/A speed=19.7x    frame= 8061 fps=473 q=-0.0 size=N/A time=00:05:36.21 bitrate=N/A speed=19.7x    frame= 8321 fps=474 q=-0.0 size=N/A time=00:05:47.05 bitrate=N/A speed=19.8x    frame= 8575 fps=475 q=-0.0 size=N/A time=00:05:57.64 bitrate=N/A speed=19.8x    frame= 8791 fps=474 q=-0.0 size=N/A time=00:06:06.65 bitrate=N/A speed=19.7x    frame= 9024 fps=473 q=-0.0 size=N/A time=00:06:16.37 bitrate=N/A speed=19.7x    frame= 9262 fps=472 q=-0.0 size=N/A time=00:06:26.30 bitrate=N/A speed=19.7x    frame= 9523 fps=473 q=-0.0 size=N/A time=00:06:37.18 bitrate=N/A speed=19.7x    frame= 9761 fps=473 q=-0.0 size=N/A time=00:06:47.11 bitrate=N/A speed=19.7x    frame=10014 fps=473 q=-0.0 size=N/A time=00:06:57.66 bitrate=N/A speed=19.7x    frame=10256 fps=473 q=-0.0 size=N/A time=00:07:07.76 bitrate=N/A speed=19.7x    frame=10495 fps=473 q=-0.0 size=N/A time=00:07:17.72 bitrate=N/A speed=19.7x    frame=10712 fps=472 q=-0.0 size=N/A time=00:07:26.77 bitrate=N/A speed=19.7x    frame=10952 fps=472 q=-0.0 size=N/A time=00:07:36.78 bitrate=N/A speed=19.7x    frame=11186 fps=471 q=-0.0 size=N/A time=00:07:46.54 bitrate=N/A speed=19.6x    frame=11406 fps=470 q=-0.0 size=N/A time=00:07:55.72 bitrate=N/A speed=19.6x    frame=11651 fps=470 q=-0.0 size=N/A time=00:08:05.94 bitrate=N/A speed=19.6x    frame=11887 fps=470 q=-0.0 size=N/A time=00:08:15.78 bitrate=N/A speed=19.6x    frame=12136 fps=470 q=-0.0 size=N/A time=00:08:26.17 bitrate=N/A speed=19.6x    frame=12391 fps=471 q=-0.0 size=N/A time=00:08:36.80 bitrate=N/A speed=19.6x    frame=12642 fps=471 q=-0.0 size=N/A time=00:08:47.27 bitrate=N/A speed=19.7x    frame=12893 fps=471 q=-0.0 size=N/A time=00:08:57.74 bitrate=N/A speed=19.7x    frame=13132 fps=471 q=-0.0 size=N/A time=00:09:07.71 bitrate=N/A speed=19.7x    frame=13378 fps=471 q=-0.0 size=N/A time=00:09:17.97 bitrate=N/A speed=19.7x    frame=13631 fps=472 q=-0.0 size=N/A time=00:09:28.52 bitrate=N/A speed=19.7x    frame=13871 fps=472 q=-0.0 size=N/A time=00:09:38.53 bitrate=N/A speed=19.7x    frame=14132 fps=472 q=-0.0 size=N/A time=00:09:49.42 bitrate=N/A speed=19.7x    frame=14391 fps=473 q=-0.0 size=N/A time=00:10:00.22 bitrate=N/A speed=19.7x    frame=14639 fps=473 q=-0.0 size=N/A time=00:10:10.56 bitrate=N/A speed=19.7x    frame=14906 fps=473 q=-0.0 size=N/A time=00:10:21.70 bitrate=N/A speed=19.7x    frame=15160 fps=474 q=-0.0 size=N/A time=00:10:32.29 bitrate=N/A speed=19.8x    frame=15426 fps=474 q=-0.0 size=N/A time=00:10:43.39 bitrate=N/A speed=19.8x    frame=15667 fps=474 q=-0.0 size=N/A time=00:10:53.44 bitrate=N/A speed=19.8x    frame=15918 fps=474 q=-0.0 size=N/A time=00:11:03.91 bitrate=N/A speed=19.8x    frame=16162 fps=474 q=-0.0 size=N/A time=00:11:14.09 bitrate=N/A speed=19.8x    frame=16411 fps=474 q=-0.0 size=N/A time=00:11:24.47 bitrate=N/A speed=19.8x    frame=16642 fps=474 q=-0.0 size=N/A time=00:11:34.11 bitrate=N/A speed=19.8x    frame=16883 fps=474 q=-0.0 size=N/A time=00:11:44.16 bitrate=N/A speed=19.8x    frame=17137 fps=474 q=-0.0 size=N/A time=00:11:54.75 bitrate=N/A speed=19.8x    frame=17376 fps=474 q=-0.0 size=N/A time=00:12:04.72 bitrate=N/A speed=19.8x    frame=17629 fps=474 q=-0.0 size=N/A time=00:12:15.27 bitrate=N/A speed=19.8x    frame=17887 fps=475 q=-0.0 size=N/A time=00:12:26.03 bitrate=N/A speed=19.8x    frame=18138 fps=475 q=-0.0 size=N/A time=00:12:36.50 bitrate=N/A speed=19.8x    frame=18368 fps=475 q=-0.0 size=N/A time=00:12:46.09 bitrate=N/A speed=19.8x    frame=18630 fps=475 q=-0.0 size=N/A time=00:12:57.02 bitrate=N/A speed=19.8x    frame=18907 fps=476 q=-0.0 size=N/A time=00:13:08.57 bitrate=N/A speed=19.8x    frame=19160 fps=476 q=-0.0 size=N/A time=00:13:19.13 bitrate=N/A speed=19.9x    frame=19411 fps=476 q=-0.0 size=N/A time=00:13:29.60 bitrate=N/A speed=19.9x    frame=19646 fps=476 q=-0.0 size=N/A time=00:13:39.40 bitrate=N/A speed=19.8x    frame=19867 fps=475 q=-0.0 size=N/A time=00:13:48.66 bitrate=N/A speed=19.8x    frame=20090 fps=475 q=-0.0 size=N/A time=00:13:57.92 bitrate=N/A speed=19.8x    frame=20291 fps=474 q=-0.0 size=N/A time=00:14:06.30 bitrate=N/A speed=19.8x    frame=20514 fps=473 q=-0.0 size=N/A time=00:14:15.60 bitrate=N/A speed=19.7x    frame=20782 fps=474 q=-0.0 size=N/A time=00:14:26.78 bitrate=N/A speed=19.8x    frame=21031 fps=474 q=-0.0 size=N/A time=00:14:37.16 bitrate=N/A speed=19.8x    frame=21280 fps=474 q=-0.0 size=N/A time=00:14:47.55 bitrate=N/A speed=19.8x    frame=21527 fps=474 q=-0.0 size=N/A time=00:14:57.85 bitrate=N/A speed=19.8x    frame=21752 fps=474 q=-0.0 size=N/A time=00:15:07.23 bitrate=N/A speed=19.8x    frame=22017 fps=474 q=-0.0 size=N/A time=00:15:18.29 bitrate=N/A speed=19.8x    frame=22264 fps=474 q=-0.0 size=N/A time=00:15:28.59 bitrate=N/A speed=19.8x    frame=22496 fps=474 q=-0.0 size=N/A time=00:15:38.27 bitrate=N/A speed=19.8x    frame=22720 fps=473 q=-0.0 size=N/A time=00:15:47.61 bitrate=N/A speed=19.7x    frame=22956 fps=473 q=-0.0 size=N/A time=00:15:57.45 bitrate=N/A speed=19.7x    frame=23179 fps=473 q=-0.0 size=N/A time=00:16:06.75 bitrate=N/A speed=19.7x    frame=23425 fps=473 q=-0.0 size=N/A time=00:16:17.01 bitrate=N/A speed=19.7x    frame=23676 fps=473 q=-0.0 size=N/A time=00:16:27.48 bitrate=N/A speed=19.7x    frame=23906 fps=473 q=-0.0 size=N/A time=00:16:37.07 bitrate=N/A speed=19.7x    frame=24152 fps=473 q=-0.0 size=N/A time=00:16:47.33 bitrate=N/A speed=19.7x    frame=24394 fps=473 q=-0.0 size=N/A time=00:16:57.43 bitrate=N/A speed=19.7x    frame=24657 fps=473 q=-0.0 size=N/A time=00:17:08.40 bitrate=N/A speed=19.7x    frame=24890 fps=473 q=-0.0 size=N/A time=00:17:18.12 bitrate=N/A speed=19.7x    frame=25121 fps=472 q=-0.0 size=N/A time=00:17:27.75 bitrate=N/A speed=19.7x    frame=25371 fps=473 q=-0.0 size=N/A time=00:17:38.18 bitrate=N/A speed=19.7x    frame=25636 fps=473 q=-0.0 size=N/A time=00:17:49.23 bitrate=N/A speed=19.7x    frame=25892 fps=473 q=-0.0 size=N/A time=00:17:59.91 bitrate=N/A speed=19.7x    frame=26150 fps=473 q=-0.0 size=N/A time=00:18:10.67 bitrate=N/A speed=19.7x    frame=26389 fps=473 q=-0.0 size=N/A time=00:18:20.64 bitrate=N/A speed=19.7x    frame=26645 fps=474 q=-0.0 size=N/A time=00:18:31.31 bitrate=N/A speed=19.8x    frame=26878 fps=473 q=-0.0 size=N/A time=00:18:41.03 bitrate=N/A speed=19.7x    frame=27129 fps=474 q=-0.0 size=N/A time=00:18:51.50 bitrate=N/A speed=19.8x    frame=27399 fps=474 q=-0.0 size=N/A time=00:19:02.76 bitrate=N/A speed=19.8x    frame=27662 fps=474 q=-0.0 size=N/A time=00:19:13.73 bitrate=N/A speed=19.8x    frame=27912 fps=474 q=-0.0 size=N/A time=00:19:24.16 bitrate=N/A speed=19.8x    frame=28159 fps=474 q=-0.0 size=N/A time=00:19:34.46 bitrate=N/A speed=19.8x    frame=28417 fps=475 q=-0.0 size=N/A time=00:19:45.22 bitrate=N/A speed=19.8x    frame=28659 fps=475 q=-0.0 size=N/A time=00:19:55.31 bitrate=N/A speed=19.8x    frame=28901 fps=475 q=-0.0 size=N/A time=00:20:05.41 bitrate=N/A speed=19.8x    frame=29130 fps=474 q=-0.0 size=N/A time=00:20:14.96 bitrate=N/A speed=19.8x    frame=29360 fps=474 q=-0.0 size=N/A time=00:20:24.55 bitrate=N/A speed=19.8x    frame=29554 fps=473 q=-0.0 size=N/A time=00:20:32.64 bitrate=N/A speed=19.7x    frame=29746 fps=472 q=-0.0 size=N/A time=00:20:40.65 bitrate=N/A speed=19.7x    frame=29991 fps=472 q=-0.0 size=N/A time=00:20:50.87 bitrate=N/A speed=19.7x    frame=30241 fps=473 q=-0.0 size=N/A time=00:21:01.30 bitrate=N/A speed=19.7x    frame=30459 fps=472 q=-0.0 size=N/A time=00:21:10.39 bitrate=N/A speed=19.7x    frame=30693 fps=472 q=-0.0 size=N/A time=00:21:20.15 bitrate=N/A speed=19.7x    frame=30944 fps=472 q=-0.0 size=N/A time=00:21:30.62 bitrate=N/A speed=19.7x    frame=31187 fps=472 q=-0.0 size=N/A time=00:21:40.75 bitrate=N/A speed=19.7x    frame=31435 fps=472 q=-0.0 size=N/A time=00:21:51.10 bitrate=N/A speed=19.7x    frame=31690 fps=472 q=-0.0 size=N/A time=00:22:01.73 bitrate=N/A speed=19.7x    frame=31935 fps=472 q=-0.0 size=N/A time=00:22:11.95 bitrate=N/A speed=19.7x    frame=32158 fps=472 q=-0.0 size=N/A time=00:22:21.25 bitrate=N/A speed=19.7x    frame=32382 fps=472 q=-0.0 size=N/A time=00:22:30.59 bitrate=N/A speed=19.7x    frame=32602 fps=471 q=-0.0 size=N/A time=00:22:39.77 bitrate=N/A speed=19.7x    frame=32794 fps=471 q=-0.0 size=N/A time=00:22:47.78 bitrate=N/A speed=19.6x    frame=32991 fps=470 q=-0.0 size=N/A time=00:22:55.99 bitrate=N/A speed=19.6x    frame=33205 fps=470 q=-0.0 size=N/A time=00:23:04.92 bitrate=N/A speed=19.6x    frame=33387 fps=469 q=-0.0 size=N/A time=00:23:12.51 bitrate=N/A speed=19.6x    frame=33590 fps=468 q=-0.0 size=N/A time=00:23:20.98 bitrate=N/A speed=19.5x    frame=33789 fps=468 q=-0.0 size=N/A time=00:23:29.28 bitrate=N/A speed=19.5x    frame=33907 fps=466 q=-0.0 size=N/A time=00:23:34.20 bitrate=N/A speed=19.4x    frame=34109 fps=465 q=-0.0 size=N/A time=00:23:42.62 bitrate=N/A speed=19.4x    frame=34329 fps=465 q=-0.0 size=N/A time=00:23:51.80 bitrate=N/A speed=19.4x    [Parsed_psnr_10 @ 000001d69bc6dc40] PSNR y:48.497713 u:51.815903 v:51.494358 average:49.317974 min:36.065772 max:inf
[out#0/null @ 000001d69b85d2c0] video:14800KiB audio:269388KiB subtitle:0KiB other streams:0KiB global headers:0KiB muxing overhead: unknown
frame=34444 fps=465 q=-0.0 Lsize=N/A time=00:23:56.60 bitrate=N/A speed=19.4x    
